<?xml version="1.0" standalone="no"?>
<!DOCTYPE svg PUBLIC "-//W3C//DTD SVG 20010904//EN"
 "http://www.w3.org/TR/2001/REC-SVG-20010904/DTD/svg10.dtd">
<svg version="1.0" xmlns="http://www.w3.org/2000/svg"
 width="260.000000pt" height="280.000000pt" viewBox="0 0 260.000000 280.000000"
 preserveAspectRatio="xMidYMid meet">

<g transform="translate(0.000000,280.000000) scale(0.100000,-0.100000)"
fill="#000000" stroke="none">
<path d="M729 2617 c-21 -16 -39 -51 -39 -76 0 -12 -5 -30 -12 -40 -9 -15 -9
-26 2 -48 36 -74 53 -153 32 -153 -5 0 -38 -18 -75 -40 -36 -22 -75 -40 -85
-40 -27 0 -68 -44 -76 -81 -9 -46 -7 -79 4 -79 6 0 10 -6 10 -12 0 -7 4 -19 9
-27 7 -11 16 -8 47 17 21 17 40 30 42 27 2 -2 -3 -39 -12 -82 -26 -128 -27
-130 -8 -73 17 51 19 54 30 33 7 -12 12 -30 13 -40 0 -10 3 -13 5 -7 3 6 1 37
-4 68 -5 31 -7 56 -5 56 2 0 21 -9 43 -20 35 -18 38 -22 31 -48 -5 -15 -5 -49
-1 -74 4 -26 5 -61 2 -77 -4 -29 -5 -30 -28 -15 -16 11 -24 27 -27 57 -2 23
-4 4 -4 -43 0 -47 2 -68 4 -47 l4 37 30 -17 c27 -16 29 -22 31 -78 l2 -60 3
53 4 53 42 -3 42 -3 3 -135 3 -134 -26 24 c-14 13 -35 51 -46 84 -11 34 -17
46 -15 29 3 -18 4 -33 2 -33 -10 0 -86 112 -87 127 0 10 -7 -6 -15 -36 -8 -30
-12 -56 -10 -58 2 -3 7 9 11 26 8 37 18 39 38 7 13 -19 14 -31 6 -61 -6 -20
-8 -39 -6 -42 3 -2 8 11 12 29 7 31 9 28 31 -52 13 -47 31 -114 39 -150 14
-59 15 -61 10 -16 -3 27 -14 81 -26 120 -11 39 -23 80 -26 91 -3 11 19 -6 51
-40 l56 -60 -4 -155 c-3 -110 -2 -135 4 -85 4 39 8 109 9 156 1 74 4 88 22
105 12 10 35 37 51 58 16 22 35 41 42 42 16 2 35 -62 37 -123 1 -23 3 -29 6
-15 2 12 8 22 12 22 10 0 37 -30 44 -50 3 -8 5 14 5 50 -1 58 -2 60 -7 22 l-6
-44 -22 24 c-11 12 -29 51 -38 85 -17 59 -17 64 0 89 22 33 31 24 49 -51 8
-33 15 -51 15 -41 1 28 -30 136 -39 136 -4 0 -25 -25 -46 -56 -29 -42 -40 -51
-44 -38 -4 11 -10 4 -18 -25 -7 -22 -24 -53 -37 -68 l-25 -28 3 135 2 135 41
5 c51 6 114 48 113 75 0 20 0 20 -9 0 -4 -12 -15 -27 -24 -34 -18 -15 -18 -18
-20 126 l-1 82 38 15 38 15 -5 -57 c-5 -47 -4 -52 5 -29 15 37 25 34 34 -9 3
-20 11 -48 17 -63 7 -14 12 -42 13 -62 1 -25 16 -59 46 -105 38 -59 44 -75 43
-119 -1 -27 -4 -62 -8 -76 -12 -40 26 -71 79 -67 l40 3 0 60 c0 33 -6 75 -14
92 l-13 33 -22 -32 c-26 -39 -38 -36 -51 16 -6 23 -25 62 -43 88 -58 84 -63
125 -19 146 21 10 20 10 -8 9 -29 -2 -30 0 -52 78 -12 44 -22 95 -22 113 l-1
34 40 -32 c23 -18 42 -31 43 -29 2 2 8 15 14 29 11 25 11 25 32 -20 12 -25 18
-34 15 -20 -4 14 -12 36 -19 50 -7 14 -13 43 -13 65 -2 50 -28 86 -78 105 -22
8 -68 31 -103 50 l-62 35 4 48 4 47 -24 -35 c-32 -47 -79 -49 -117 -4 -14 17
-26 37 -26 44 0 7 -8 28 -17 45 -14 25 -15 34 -5 37 6 3 12 21 12 42 0 60 29
89 93 94 l52 3 -50 2 c-27 1 -57 -4 -66 -11z m59 -297 c26 0 31 -4 35 -27 4
-27 4 -27 6 3 0 17 8 37 16 44 13 11 15 8 16 -16 0 -25 8 -33 60 -58 32 -16
59 -33 59 -38 0 -4 -27 -8 -60 -8 l-60 0 -2 33 -1 32 -4 -31 c-3 -20 -11 -34
-22 -37 -14 -3 -17 1 -14 22 2 19 0 17 -8 -8 -13 -42 -25 -32 -38 34 l-10 50
5 -53 c5 -51 4 -53 -16 -42 -17 9 -20 20 -20 73 1 54 2 60 14 45 8 -10 26 -18
44 -18z m-68 -65 l0 -35 -55 0 c-30 0 -55 4 -55 8 0 9 88 61 103 62 4 0 7 -16
7 -35z m-82 -52 c-2 -5 -16 -33 -30 -64 -25 -52 -88 -116 -102 -102 -14 14 -5
51 26 110 32 60 35 63 71 63 21 0 37 -3 35 -7z m126 -3 c24 -9 25 -13 25 -94
l0 -84 -44 -16 c-42 -14 -48 -14 -95 6 -43 18 -50 25 -50 48 0 35 19 90 32 90
5 0 7 4 3 10 -3 5 3 18 15 30 22 22 72 26 114 10z m175 -12 c11 -11 18 -25 15
-30 -3 -4 -1 -8 4 -8 10 0 32 -67 32 -97 0 -29 -91 -65 -131 -51 -16 6 -32 8
-35 5 -3 -3 8 -8 25 -12 17 -4 36 -15 41 -25 10 -19 14 -80 5 -80 -2 0 -25 10
-51 22 -46 23 -46 23 -41 65 3 28 1 40 -6 36 -6 -3 -7 -1 -3 5 4 7 7 50 7 96
0 94 -2 92 81 95 26 1 43 -5 57 -21z m122 -47 c29 -58 34 -73 24 -91 -11 -21
-11 -20 -48 7 -24 19 -42 44 -52 75 -9 26 -21 50 -26 53 -20 13 -7 25 29 25
36 0 38 -2 73 -69z m-271 -176 c0 -31 5 -37 50 -60 28 -14 50 -30 50 -35 0 -6
0 -13 0 -17 1 -5 -16 -11 -37 -14 l-38 -6 37 -2 c41 -1 57 -26 38 -61 -8 -15
-21 -20 -50 -20 l-39 0 1 81 c0 44 -4 85 -10 91 -6 6 -24 2 -52 -12 -48 -24
-59 -18 -52 30 5 33 15 43 57 57 39 13 45 9 45 -32z m-193 13 c-3 -8 -6 -5 -6
6 -1 11 2 17 5 13 3 -3 4 -12 1 -19z m191 -148 l1 -80 -44 0 c-39 0 -45 3 -51
25 -10 39 1 53 43 58 l38 4 -43 1 c-35 2 -43 5 -40 19 3 18 77 65 89 57 4 -2
7 -40 7 -84z m449 -324 l6 -66 -40 0 c-75 0 -98 71 -34 104 16 9 32 23 35 32
12 32 28 -2 33 -70z"/>
<path d="M658 2143 c7 -3 16 -2 19 1 4 3 -2 6 -13 5 -11 0 -14 -3 -6 -6z"/>
<path d="M710 2130 c14 -4 34 -8 45 -8 16 0 15 2 -5 8 -14 4 -34 8 -45 8 -16
0 -15 -2 5 -8z"/>
<path d="M918 2143 c7 -3 16 -2 19 1 4 3 -2 6 -13 5 -11 0 -14 -3 -6 -6z"/>
<path d="M840 2130 c-20 -6 -21 -8 -5 -8 11 0 31 4 45 8 20 6 21 8 5 8 -11 0
-31 -4 -45 -8z"/>
<path d="M1729 2601 c-21 -21 -29 -39 -29 -63 0 -19 -5 -39 -11 -45 -8 -8 -5
-23 10 -54 11 -24 20 -36 21 -26 0 10 -8 30 -17 44 -13 19 -14 28 -5 31 7 2
12 21 12 42 0 57 26 83 91 91 l54 6 -48 2 c-41 1 -53 -3 -78 -28z"/>
<path d="M866 2598 c10 -14 21 -24 23 -22 3 3 -6 15 -18 27 l-24 22 19 -27z"/>
<path d="M1875 2600 c21 -24 26 -25 19 -6 -3 8 -13 17 -22 21 -13 5 -13 2 3
-15z"/>
<path d="M1902 2537 c-1 -23 4 -45 13 -53 13 -14 15 -14 15 0 0 9 -4 16 -9 16
-6 0 -12 17 -14 38 l-4 37 -1 -38z"/>
<path d="M891 2529 c-1 -26 4 -39 15 -43 13 -5 14 -3 6 6 -5 7 -12 27 -15 43
-4 28 -4 28 -6 -6z"/>
<path d="M901 2458 c-1 -10 -5 -18 -11 -18 -5 0 -10 -8 -10 -17 0 -14 3 -13
16 5 8 12 13 28 11 35 -3 7 -6 5 -6 -5z"/>
<path d="M1903 2444 c-7 -7 -13 -22 -13 -34 0 -24 -9 -25 -36 -5 -25 19 -56
19 -96 -1 -31 -14 -33 -18 -30 -58 l4 -43 -73 -41 -72 -40 42 -27 c22 -15 41
-29 41 -31 0 -9 -66 -63 -76 -64 -6 0 -27 -11 -47 -25 -20 -13 -39 -20 -42
-14 -4 5 11 43 33 84 43 81 35 100 -19 46 -23 -24 -29 -38 -29 -74 0 -24 -9
-70 -20 -102 -11 -33 -19 -63 -17 -68 1 -5 11 17 21 48 12 39 21 54 26 45 6
-10 17 -6 45 18 41 37 52 39 58 15 4 -14 5 -13 6 4 0 11 16 34 34 49 l32 27 6
-49 6 -49 1 53 c2 50 1 53 -38 80 -21 15 -39 29 -40 32 0 14 136 81 159 78
l26 -3 3 -217 c1 -120 -1 -218 -6 -218 -9 0 -83 123 -94 155 -3 11 -6 14 -7 8
-1 -17 -46 -16 -63 1 -12 12 -16 8 -26 -28 -6 -24 -21 -69 -33 -100 -21 -58
-21 -58 -56 -53 -48 8 -74 33 -68 66 3 14 -4 -1 -15 -34 -11 -33 -26 -105 -34
-160 -8 -55 -22 -120 -31 -144 -9 -24 -15 -65 -13 -90 3 -46 3 -46 43 -49 34
-2 45 2 65 25 l25 28 -26 -22 c-16 -15 -38 -23 -62 -23 -37 0 -37 0 -37 43 0
23 5 60 11 82 l11 39 14 -27 c9 -16 23 -27 35 -27 11 0 24 -10 29 -22 6 -17 7
-10 3 24 -5 42 -1 55 41 132 25 47 46 98 46 113 0 23 23 90 63 186 7 16 17 25
25 22 8 -3 22 -5 32 -5 12 0 33 -24 59 -65 23 -35 41 -67 41 -71 0 -3 -13 -23
-30 -44 -16 -21 -30 -46 -29 -56 1 -17 2 -17 7 1 10 31 54 85 69 85 10 0 13
-31 13 -140 0 -78 -4 -140 -9 -140 -5 0 -32 26 -60 57 -46 53 -49 59 -34 75 8
9 13 23 10 30 -4 9 -6 8 -6 -3 -1 -9 -7 -22 -14 -28 -21 -16 -45 8 -50 49 -4
34 -4 33 -5 -7 -2 -33 2 -43 16 -47 10 -4 42 -35 71 -71 29 -36 59 -65 67 -65
10 0 14 -13 14 -44 0 -40 -3 -45 -31 -55 -18 -6 -54 -11 -80 -11 -44 0 -50 3
-72 36 l-25 35 19 72 c10 40 18 79 18 87 0 8 -12 -25 -25 -75 -24 -93 -31
-141 -15 -117 6 10 12 7 25 -13 17 -25 16 -28 -8 -77 l-25 -50 -4 59 c-2 32
-3 6 -2 -57 2 -63 7 -126 13 -140 6 -17 8 -1 5 55 -4 69 -1 86 19 125 21 41
26 45 65 48 50 4 56 -8 56 -111 0 -41 3 -63 8 -55 6 8 9 -3 10 -32 2 -33 3
-37 6 -15 2 17 -2 72 -10 122 l-13 92 30 11 c16 5 31 10 33 10 3 0 3 -75 0
-167 -2 -94 -1 -128 2 -78 l7 90 5 -65 c4 -36 4 -1 2 78 -2 78 -2 142 0 142 2
0 18 -5 36 -11 21 -7 30 -16 27 -25 -13 -34 -18 -142 -7 -148 8 -5 11 14 11
66 0 40 4 79 9 86 5 8 23 12 47 10 33 -3 42 -9 61 -43 13 -22 23 -35 23 -30 0
6 -9 25 -20 43 -25 41 -25 42 6 75 14 15 24 33 22 39 -2 5 -16 -8 -31 -31 -26
-39 -30 -41 -76 -41 -26 0 -62 5 -80 11 -28 10 -31 15 -31 55 0 31 4 44 14 44
8 0 37 28 65 61 46 55 50 63 37 78 -8 9 -16 27 -19 41 l-4 25 -2 -24 c0 -14 6
-32 13 -40 13 -15 10 -23 -32 -73 -26 -31 -53 -57 -59 -57 -10 -1 -13 33 -13
139 0 159 6 170 59 98 17 -23 31 -38 31 -32 0 5 -14 26 -31 47 l-31 38 42 69
c27 45 49 70 60 70 10 0 25 3 34 6 11 4 16 1 16 -10 0 -9 5 -16 10 -16 12 0
13 27 2 34 -4 2 -26 2 -48 -1 -37 -5 -42 -10 -83 -79 -23 -41 -47 -74 -52 -74
-6 0 -8 88 -7 218 l3 217 26 3 c16 2 50 -11 90 -34 80 -46 77 -43 54 -56 -52
-30 -65 -54 -63 -120 l2 -63 3 63 c2 34 7 62 12 62 19 0 60 -58 64 -90 l4 -35
1 33 c1 17 6 32 10 32 5 0 28 -14 50 -30 23 -17 42 -25 42 -18 0 27 19 -11 39
-81 21 -69 21 -74 5 -92 -17 -18 -80 -37 -90 -26 -4 3 -17 34 -30 69 -12 35
-23 56 -23 48 0 -8 11 -42 24 -75 14 -33 25 -73 25 -88 0 -16 19 -61 43 -100
40 -69 42 -75 42 -153 0 -99 11 -116 68 -112 23 2 42 9 43 16 1 7 0 8 -3 2 -7
-14 -76 -13 -91 2 -25 25 -11 98 19 98 10 0 25 12 32 27 l14 26 11 -34 c6 -19
13 -43 15 -54 4 -19 5 -19 6 1 0 11 -7 45 -18 75 -10 30 -21 83 -25 119 -7 61
-35 180 -70 295 -9 28 -16 65 -16 83 0 18 -4 31 -9 28 -4 -3 -6 6 -3 19 3 18
-4 33 -26 55 -31 30 -77 46 -50 16 7 -8 17 -11 22 -8 5 3 6 0 2 -6 -4 -7 4
-31 18 -55 26 -44 34 -87 17 -87 -6 0 -13 5 -16 10 -4 6 -27 21 -53 34 -26 13
-57 35 -70 49 l-23 25 40 23 c23 12 41 25 41 29 0 3 -31 23 -70 44 -60 32 -70
41 -70 64 0 27 18 86 34 110 11 19 4 23 -11 6z m-103 -84 c0 -49 -1 -50 -30
-50 -28 0 -30 2 -30 38 0 30 5 41 23 50 35 17 37 15 37 -38z m45 38 c20 -9 25
-18 25 -50 0 -36 -2 -38 -30 -38 -29 0 -30 1 -30 50 0 56 -1 55 35 38z m-350
-569 c8 -1 21 -2 28 -3 19 -2 20 -51 2 -70 -9 -9 -13 -16 -9 -16 3 0 1 -7 -6
-15 -14 -17 -62 -113 -65 -130 -1 -5 -3 -16 -3 -23 -1 -8 -7 -12 -13 -10 -6 2
-10 7 -9 12 1 5 -4 12 -11 17 -10 6 -11 27 -1 109 7 56 15 107 19 113 4 7 8
17 9 22 0 6 2 16 2 23 1 8 9 5 22 -8 11 -11 27 -21 35 -21z m700 -65 c18 -102
19 -165 1 -189 -13 -18 -15 -17 -30 19 -9 21 -16 44 -16 52 0 7 -7 19 -15 27
-8 8 -16 21 -17 28 -2 7 -11 22 -20 33 -11 11 -18 36 -18 58 0 29 4 38 18 38
9 0 28 6 42 14 14 7 29 10 33 6 5 -4 15 -43 22 -86z"/>
<path d="M441 1995 c-12 -31 -21 -63 -21 -73 0 -9 11 15 24 53 29 84 27 99 -3
20z"/>
<path d="M1157 1925 c5 -48 4 -51 -23 -62 l-29 -12 27 6 c25 5 28 2 42 -49 8
-29 17 -62 19 -73 4 -19 5 -19 6 1 0 11 -6 43 -14 70 -8 27 -15 67 -16 89 0
22 -4 49 -9 60 -5 13 -6 2 -3 -30z"/>
<path d="M1622 1955 c0 -11 4 -31 8 -45 6 -20 8 -21 8 -5 0 11 -4 31 -8 45 -6
20 -8 21 -8 5z"/>
<path d="M1971 1904 c-7 -38 -11 -78 -8 -89 3 -13 5 -8 6 13 0 18 6 53 12 77
6 24 9 49 7 56 -2 7 -10 -19 -17 -57z"/>
<path d="M414 1887 c3 -10 -1 -43 -10 -73 -8 -30 -14 -60 -12 -66 2 -6 10 14
17 45 7 31 17 59 22 63 15 9 98 -27 101 -45 3 -10 6 -6 10 11 3 16 1 25 -4 22
-13 -8 -100 25 -117 45 -12 15 -13 14 -7 -2z"/>
<path d="M962 1870 c0 -19 2 -27 5 -17 2 9 2 25 0 35 -3 9 -5 1 -5 -18z"/>
<path d="M1643 1835 c0 -27 2 -38 4 -22 2 15 2 37 0 50 -2 12 -4 0 -4 -28z"/>
<path d="M531 1779 c-1 -9 -19 -44 -42 -78 -24 -36 -43 -78 -46 -101 -3 -22
-9 -43 -14 -45 -15 -10 -49 38 -50 69 l-1 31 -8 -28 c-10 -32 7 -59 53 -83 21
-11 27 -22 27 -47 0 -18 -5 -38 -12 -45 -15 -15 -84 -16 -91 -2 -3 6 -4 5 -3
-2 4 -21 75 -22 98 -1 16 14 19 26 14 58 -14 94 -9 113 53 212 18 28 31 58 28
65 -4 9 -6 8 -6 -3z"/>
<path d="M1971 1755 c0 -23 -7 -47 -13 -54 -11 -10 -10 -11 5 -6 13 6 17 2 17
-16 0 -12 2 -20 5 -18 2 3 0 34 -4 69 -7 52 -9 57 -10 25z"/>
<path d="M963 1735 c0 -27 2 -38 4 -22 2 15 2 37 0 50 -2 12 -4 0 -4 -28z"/>
<path d="M382 1700 c0 -19 2 -27 5 -17 2 9 2 25 0 35 -3 9 -5 1 -5 -18z"/>
<path d="M893 1695 c0 -22 2 -30 4 -17 2 12 2 30 0 40 -3 9 -5 -1 -4 -23z"/>
<path d="M1203 1670 c0 -25 2 -35 4 -22 2 12 2 32 0 45 -2 12 -4 2 -4 -23z"/>
<path d="M882 1630 c0 -14 2 -19 5 -12 2 6 2 18 0 25 -3 6 -5 1 -5 -13z"/>
<path d="M1991 1634 c0 -11 3 -14 6 -6 3 7 2 16 -1 19 -3 4 -6 -2 -5 -13z"/>
<path d="M2001 1594 c0 -11 3 -14 6 -6 3 7 2 16 -1 19 -3 4 -6 -2 -5 -13z"/>
<path d="M582 1570 c0 -14 2 -19 5 -12 2 6 2 18 0 25 -3 6 -5 1 -5 -13z"/>
<path d="M345 1550 c-4 -17 -5 -34 -2 -36 2 -3 7 10 11 27 8 42 0 50 -9 9z"/>
<path d="M2011 1554 c0 -11 3 -14 6 -6 3 7 2 16 -1 19 -3 4 -6 -2 -5 -13z"/>
<path d="M901 1544 c0 -11 3 -14 6 -6 3 7 2 16 -1 19 -3 4 -6 -2 -5 -13z"/>
<path d="M572 1481 l-2 -64 24 22 24 22 4 -133 c5 -138 24 -215 65 -260 15
-16 15 -21 3 -28 -22 -14 -40 -12 -40 5 0 9 -14 44 -31 78 -18 34 -38 78 -45
97 -7 19 -13 28 -13 19 -1 -8 17 -53 40 -100 43 -89 50 -137 29 -209 -5 -19
-9 -66 -8 -105 l1 -70 8 80 c14 156 19 174 51 191 17 9 41 13 54 10 20 -5 24
-13 25 -44 1 -29 3 -25 10 23 5 33 8 71 6 85 -2 14 -5 6 -6 -17 -1 -46 -17
-56 -45 -28 -8 9 -19 14 -23 13 -14 -5 -52 84 -64 147 -6 34 -9 113 -7 185 3
81 2 116 -4 100 -5 -14 -17 -33 -26 -43 -16 -19 -17 -17 -23 34 l-6 54 -1 -64z"/>
<path d="M870 1438 c-13 -50 -24 -119 -26 -173 l-3 -90 9 90 c4 50 18 125 30
168 12 43 20 81 17 83 -2 2 -14 -33 -27 -78z"/>
<path d="M331 1484 c0 -11 3 -14 6 -6 3 7 2 16 -1 19 -3 4 -6 -2 -5 -13z"/>
<path d="M2027 1360 c-8 -135 -26 -219 -52 -240 -11 -9 -19 -3 -40 29 -15 22
-34 57 -41 78 -14 36 -15 37 -10 6 3 -18 22 -57 42 -88 34 -50 36 -58 25 -83
-12 -25 -14 -25 -25 -9 -18 24 -27 22 -58 -15 l-27 -33 -2 40 c-1 22 -5 54 -9
70 -7 27 -8 25 -8 -15 0 -49 14 -159 17 -124 0 11 10 29 20 38 19 17 20 17 24
-11 3 -21 4 -17 6 15 1 41 16 56 27 27 4 -8 12 -15 20 -15 8 0 14 -8 15 -17 0
-10 7 -49 15 -88 14 -72 13 -48 -2 82 -6 44 -2 60 25 117 39 78 53 161 49 281
-3 90 -3 90 -11 -45z"/>
<path d="M563 1375 c0 -22 2 -30 4 -17 2 12 2 30 0 40 -3 9 -5 -1 -4 -23z"/>
<path d="M1023 1345 c0 -27 2 -38 4 -22 2 15 2 37 0 50 -2 12 -4 0 -4 -28z"/>
<path d="M957 1292 c-4 -38 -9 -84 -12 -103 -5 -29 -4 -31 5 -11 10 24 26 182
18 182 -3 0 -8 -31 -11 -68z"/>
<path d="M553 1295 c0 -22 2 -30 4 -17 2 12 2 30 0 40 -3 9 -5 -1 -4 -23z"/>
<path d="M733 1191 c-7 -58 -11 -106 -9 -108 6 -6 28 162 24 188 -1 13 -9 -23
-15 -80z"/>
<path d="M1021 1256 c-1 -21 -93 -226 -101 -226 -3 0 -11 4 -19 9 -11 7 -10
14 6 37 11 16 23 40 27 54 4 14 -5 4 -19 -22 -14 -27 -29 -48 -34 -48 -5 0
-13 26 -17 58 -5 31 -10 48 -12 36 -1 -11 1 -39 6 -62 8 -33 7 -42 -5 -46 -24
-10 -33 -7 -33 11 0 9 -2 14 -4 12 -2 -2 0 -38 4 -79 7 -75 7 -75 9 -18 1 52
3 58 25 64 14 3 37 -1 55 -10 29 -15 31 -15 31 1 0 9 21 61 46 115 25 54 43
106 41 115 -4 16 -5 16 -6 -1z"/>
<path d="M1853 1225 c0 -27 2 -38 4 -22 2 15 2 37 0 50 -2 12 -4 0 -4 -28z"/>
<path d="M804 1175 c0 -49 1 -71 3 -48 2 23 2 64 0 90 -2 26 -3 8 -3 -42z"/>
<path d="M1720 1234 c0 -18 -45 -97 -65 -114 -11 -9 -18 -4 -34 27 -30 57 -25
35 10 -42 l30 -67 -15 -69 c-27 -115 -18 -212 26 -308 16 -34 22 -67 23 -129
1 -74 -1 -84 -22 -104 -13 -12 -23 -31 -22 -42 0 -15 2 -17 6 -6 3 8 16 27 28
41 18 22 21 37 20 110 -1 67 -7 97 -28 146 -32 75 -34 93 -8 86 12 -3 24 3 35
18 15 21 16 22 34 6 10 -9 24 -17 32 -17 10 0 11 -10 4 -42 -4 -24 -7 -111 -5
-195 l3 -152 -54 -4 -53 -3 58 -2 59 -2 -2 158 c-1 86 0 198 3 247 2 50 3 71
0 48 -5 -47 -9 -50 -40 -28 -14 10 -23 29 -26 53 l-4 37 -1 -41 c-2 -50 -33
-84 -57 -64 -33 27 -9 216 33 258 12 12 24 22 27 22 3 0 6 -37 7 -82 l2 -83 3
73 4 74 19 -25 c11 -14 21 -40 21 -59 1 -18 5 3 10 47 5 50 5 83 -1 89 -7 7
-10 -7 -10 -39 l0 -50 -26 33 c-27 34 -54 42 -54 17 0 -23 -16 -18 -28 10 -10
22 -7 32 28 87 35 53 51 98 35 98 -3 0 -5 -7 -5 -16z"/>
<path d="M1763 1150 c0 -25 2 -35 4 -22 2 12 2 32 0 45 -2 12 -4 2 -4 -23z"/>
<path d="M1843 1135 c0 -22 2 -30 4 -17 2 12 2 30 0 40 -3 9 -5 -1 -4 -23z"/>
<path d="M941 979 c-1 -20 -6 -25 -23 -25 -15 1 -24 -6 -26 -19 -4 -20 -4 -20
11 0 13 16 17 17 31 6 9 -7 16 -20 16 -29 0 -8 2 -13 4 -11 3 3 1 27 -3 54 -5
28 -9 38 -10 24z"/>
<path d="M673 949 c15 -9 17 -29 16 -202 0 -178 -2 -189 -15 -152 -9 27 -12
30 -8 10 4 -16 9 -58 13 -91 6 -58 5 -64 -21 -93 -29 -33 -35 -51 -17 -51 5 0
8 4 5 8 -3 5 7 24 23 43 l27 34 3 232 c2 127 0 241 -4 252 -3 12 -14 21 -23
21 -16 -1 -15 -2 1 -11z"/>
<path d="M740 852 c-11 -87 -11 -121 0 -210 7 -59 15 -142 17 -184 l4 -77 -53
-4 -53 -3 59 -2 58 -2 -7 98 c-9 133 -10 193 -1 222 5 20 4 18 -8 -5 -14 -30
-14 -29 -15 36 -1 88 9 164 20 147 10 -16 10 11 0 57 -5 23 -10 6 -21 -73z"/>
<path d="M1836 918 c-3 -13 -5 -32 -5 -43 1 -11 5 -2 10 19 10 42 6 62 -5 24z"/>
<path d="M1892 869 c-2 -40 -7 -61 -20 -72 -28 -26 -40 -20 -45 21 -3 20 -3
-1 0 -48 2 -47 8 -114 13 -150 l8 -65 -4 75 c-2 41 -6 89 -9 105 -5 27 -2 32
29 47 33 16 35 16 48 -3 20 -31 68 -17 67 20 0 24 -1 25 -9 5 -24 -61 -62 -29
-71 59 l-6 62 -1 -56z"/>
<path d="M820 896 c0 -8 5 -18 10 -21 6 -3 10 3 10 14 0 12 -4 21 -10 21 -5 0
-10 -6 -10 -14z"/>
<path d="M884 745 c0 -93 2 -133 3 -88 2 45 2 122 0 170 -1 48 -3 12 -3 -82z"/>
<path d="M1772 890 c0 -14 2 -19 5 -12 2 6 2 18 0 25 -3 6 -5 1 -5 -13z"/>
<path d="M962 846 c-2 -52 -49 -264 -62 -281 -5 -5 -7 -36 -6 -67 1 -42 7 -63
22 -80 12 -13 24 -30 27 -38 4 -12 6 -12 6 2 1 9 -9 29 -22 45 -30 37 -28 80
13 245 20 83 30 144 27 175 l-3 48 -2 -49z"/>
<path d="M813 830 c0 -25 2 -35 4 -22 2 12 2 32 0 45 -2 12 -4 2 -4 -23z"/>
<path d="M842 830 c0 -19 2 -27 5 -17 2 9 2 25 0 35 -3 9 -5 1 -5 -18z"/>
<path d="M773 785 c0 -38 2 -53 4 -32 2 20 2 52 0 70 -2 17 -4 1 -4 -38z"/>
<path d="M853 730 c0 -36 2 -50 4 -32 2 17 2 47 0 65 -2 17 -4 3 -4 -33z"/>
<path d="M812 740 c0 -19 2 -27 5 -17 2 9 2 25 0 35 -3 9 -5 1 -5 -18z"/>
<path d="M1961 745 c-1 -11 -12 -44 -26 -73 -14 -30 -25 -64 -24 -75 1 -17 3
-15 9 8 4 17 17 52 29 78 12 26 20 56 18 65 -4 14 -5 13 -6 -3z"/>
<path d="M631 734 c0 -11 3 -14 6 -6 3 7 2 16 -1 19 -3 4 -6 -2 -5 -13z"/>
<path d="M642 695 c0 -11 3 -29 8 -40 11 -25 11 1 0 35 -6 20 -8 21 -8 5z"/>
<path d="M825 680 c4 -14 10 -41 15 -60 l8 -35 1 31 c0 18 -6 45 -15 60 -14
27 -15 27 -9 4z"/>
<path d="M826 549 c-3 -17 -6 -65 -6 -105 l0 -74 58 2 57 2 -54 3 -54 4 5 100
c3 54 4 99 3 99 -1 0 -5 -14 -9 -31z"/>
<path d="M1832 458 c-2 -78 0 -88 16 -88 11 0 13 3 5 8 -7 5 -13 40 -16 87
l-3 80 -2 -87z"/>
<path d="M1911 504 c0 -11 3 -14 6 -6 3 7 2 16 -1 19 -3 4 -6 -2 -5 -13z"/>
<path d="M1905 470 c-6 -10 46 -82 54 -74 2 2 -8 17 -23 33 -16 16 -25 34 -22
40 4 6 5 11 2 11 -3 0 -8 -4 -11 -10z"/>
<path d="M1888 373 c12 -2 30 -2 40 0 9 3 -1 5 -23 4 -22 0 -30 -2 -17 -4z"/>
</g>
</svg>
